HIERARCHY
ROOT Hips
{
	OFFSET 0.000000 0.000000 0.000000
	CHANNELS 6 Xposition Yposition Zposition Zrotation Yrotation Xrotation 
	JOINT LowerBack
	{
		OFFSET 0.000000 0.000000 0.000000
		CHANNELS 3 Zrotation Yrotation Xrotation
		JOINT Spine
		{
			OFFSET 0.028270 2.035590 -0.193380
			CHANNELS 3 Zrotation Yrotation Xrotation
			JOINT Spine1
			{
				OFFSET 0.056720 2.048850 -0.042750
				CHANNELS 3 Zrotation Yrotation Xrotation
				JOINT Neck
				{
					OFFSET 0.000000 0.000000 0.000000
					CHANNELS 3 Zrotation Yrotation Xrotation
					JOINT Neck1
					{
						OFFSET -0.054170 1.746240 0.172020
						CHANNELS 3 Zrotation Yrotation Xrotation
						JOINT Head
						{
							OFFSET 0.104070 1.761360 -0.123970
							CHANNELS 3 Zrotation Yrotation Xrotation
							End Site
							{
								OFFSET 0.000000 0.000000 0.000000
							}
						}
					}
				}
				JOINT LeftShoulder
				{
					OFFSET 0.000000 0.000000 0.000000
					CHANNELS 3 Zrotation Yrotation Xrotation
					JOINT LeftArm
					{
						OFFSET 3.362410 1.200890 -0.311210
						CHANNELS 3 Zrotation Yrotation Xrotation
						JOINT LeftForeArm
						{
							OFFSET 4.983000 -0.000000 -0.000000
							CHANNELS 3 Zrotation Yrotation Xrotation
							JOINT LeftHand
							{
								OFFSET 3.483560 -0.000000 -0.000000
								CHANNELS 3 Zrotation Yrotation Xrotation
								JOINT LeftFingerBase
								{
									OFFSET 0.000000 0.000000 0.000000
									CHANNELS 3 Zrotation Yrotation Xrotation
									JOINT LeftHandIndex1
									{
										OFFSET 0.715260 -0.000000 -0.000000
										CHANNELS 3 Zrotation Yrotation Xrotation
										End Site
										{
											OFFSET 0.000000 0.000000 0.000000
										}
									}
								}
								JOINT LThumb
								{
									OFFSET 0.000000 0.000000 0.000000
									CHANNELS 3 Zrotation Yrotation Xrotation
									End Site
									{
										OFFSET 0.000000 0.000000 0.000000
									}
								}
							}
						}
					}
				}
				JOINT RightShoulder
				{
					OFFSET 0.000000 0.000000 0.000000
					CHANNELS 3 Zrotation Yrotation Xrotation
					JOINT RightArm
					{
						OFFSET -3.136600 1.374050 -0.404650
						CHANNELS 3 Zrotation Yrotation Xrotation
						JOINT RightForeArm
						{
							OFFSET -5.241900 -0.000000 -0.000000
							CHANNELS 3 Zrotation Yrotation Xrotation
							JOINT RightHand
							{
								OFFSET -3.444170 -0.000000 -0.000000
								CHANNELS 3 Zrotation Yrotation Xrotation
								JOINT RightFingerBase
								{
									OFFSET 0.000000 0.000000 0.000000
									CHANNELS 3 Zrotation Yrotation Xrotation
									JOINT RightHandIndex1
									{
										OFFSET -0.622530 -0.000000 -0.000000
										CHANNELS 3 Zrotation Yrotation Xrotation
										End Site
										{
											OFFSET 0.000000 0.000000 0.000000
										}
									}
								}
								JOINT RThumb
								{
									OFFSET 0.000000 0.000000 0.000000
									CHANNELS 3 Zrotation Yrotation Xrotation
									End Site
									{
										OFFSET 0.000000 0.000000 0.000000
									}
								}
							}
						}
					}
				}
			}
		}
	}
}
}
MOTION
Frames: 15
Frame Time: 0.008333
-1.076616 16.523480 -1.023721 -153.098148 74.153249 -155.158442 2.561581 0.884637 -0.553405 0.033412 0.737520 -2.390360 -4.603711 0.715758 2.828580 9.081248 -15.587512 -10.518814 -1.154545 -0.051267 -0.748141 0.000000 0.000000 0.000000 -5.057149 27.030245 1.362580 -84.107641 32.167123 5.916568 -3.771889 -25.172525 -0.034290 -12.874982 10.923642 -1.256377 0.010166 -0.159621 -0.000000 0.000000 0.000000 0.000000 0.000000 0.000000 0.000000 9.683139 -10.319366 0.317248 34.395657 12.889083 14.548956 1.141787 56.442903 0.010424 5.250704 5.563978 0.263864 -0.032566 -0.145574 0.000000 0.000000 0.000000 0.000000 0.000000 0.000000 0.000000 
-0.885286 16.491205 -1.096858 -153.213005 73.934556 -155.234919 2.477243 0.837269 -0.613776 0.000598 0.690949 -2.417442 -4.678400 0.670060 2.787294 9.229699 -15.602483 -10.572223 -1.192768 -0.053749 -0.761785 0.000000 0.000000 0.000000 -5.010452 26.864075 1.341929 -83.815617 31.669210 6.380449 -3.744814 -25.426473 -0.033551 -12.802390 10.733279 -1.227368 0.010090 -0.156875 -0.000000 0.000000 0.000000 0.000000 0.000000 0.000000 0.000000 9.944248 -10.286932 0.331915 35.015586 12.335407 14.411364 1.194999 56.311127 0.010758 5.271914 5.605308 0.266586 -0.028736 -0.144328 0.000000 0.000000 0.000000 0.000000 0.000000 0.000000 0.000000 
-0.697849 16.460555 -1.167971 -153.579148 73.717022 -155.505317 2.344893 0.770196 -0.680614 -0.040332 0.627322 -2.446769 -4.753973 0.606789 2.744520 9.361561 -15.582744 -10.622409 -1.235753 -0.056673 -0.774354 0.000000 0.000000 0.000000 -4.973066 26.688886 1.320851 -83.421307 31.040238 6.875617 -3.717111 -25.672650 -0.032620 -12.667027 10.465273 -1.183752 0.009226 -0.153252 -0.000000 0.000000 0.000000 0.000000 0.000000 0.000000 0.000000 10.185151 -10.218149 0.338059 35.803791 11.739327 14.197522 1.254547 56.111134 0.011125 5.241667 5.650185 0.266916 -0.023759 -0.143428 0.000000 0.000000 0.000000 0.000000 0.000000 0.000000 0.000000 
-0.514626 16.432345 -1.237257 -154.193764 73.482363 -155.968245 2.171565 0.684803 -0.754073 -0.088033 0.547530 -2.477909 -4.829612 0.526841 2.701129 9.469995 -15.532102 -10.665479 -1.283043 -0.060054 -0.784815 0.000000 0.000000 0.000000 -4.936268 26.497589 1.300234 -82.932912 30.277250 7.377497 -3.690186 -25.904001 -0.031513 -12.460934 10.135959 -1.127330 0.007422 -0.148817 -0.000000 0.000000 0.000000 0.000000 0.000000 0.000000 0.000000 10.396723 -10.118819 0.332985 36.769376 11.082251 13.886332 1.319882 55.836214 0.011509 5.144198 5.693095 0.263552 -0.017504 -0.142888 0.000000 0.000000 0.000000 0.000000 0.000000 0.000000 0.000000 
-0.335798 16.407353 -1.305170 -155.032643 73.211000 -156.604825 1.969486 0.583299 -0.833759 -0.140162 0.453004 -2.509998 -4.904421 0.431727 2.658899 9.549546 -15.462296 -10.699194 -1.333742 -0.063849 -0.792607 0.000000 0.000000 0.000000 -4.892401 26.285593 1.280108 -82.359733 29.379667 7.858508 -3.665448 -26.116166 -0.030248 -12.177132 9.763558 -1.060601 0.004548 -0.143653 -0.000000 0.000000 0.000000 0.000000 0.000000 0.000000 0.000000 10.573172 -10.003652 0.314924 37.910851 10.359720 13.466487 1.390200 55.475652 0.011882 4.962115 5.731926 0.255595 -0.009863 -0.142720 0.000000 0.000000 0.000000 0.000000 0.000000 0.000000 0.000000 
-0.161422 16.386244 -1.372347 -156.054264 72.884998 -157.381273 1.754888 0.469040 -0.918981 -0.193732 0.346093 -2.542338 -4.977819 0.323912 2.618816 9.595050 -15.380306 -10.720780 -1.387224 -0.068044 -0.797024 0.000000 0.000000 0.000000 -4.836235 26.048081 1.260326 -81.713346 28.352835 8.287689 -3.644031 -26.309086 -0.028837 -11.809987 9.365092 -0.985962 0.000527 -0.137839 -0.000000 0.000000 0.000000 0.000000 0.000000 0.000000 0.000000 10.709183 -9.882213 0.282869 39.222188 9.559761 12.922774 1.464811 55.023076 0.012214 4.687872 5.764919 0.242446 -0.000884 -0.142887 0.000000 0.000000 0.000000 0.000000 0.000000 0.000000 0.000000 
0.008587 16.369527 -1.439716 -157.199626 72.489316 -158.249338 1.547064 0.346378 -1.008863 -0.245252 0.229969 -2.574485 -5.049451 0.206708 2.580932 9.601807 -15.286931 -10.726783 -1.443055 -0.072652 -0.797176 0.000000 0.000000 0.000000 -4.764044 25.780799 1.240681 -81.006803 27.207410 8.634866 -3.626729 -26.487394 -0.027295 -11.356413 8.954504 -0.905618 -0.004659 -0.131441 -0.000000 0.000000 0.000000 0.000000 0.000000 0.000000 0.000000 10.799297 -9.757252 0.236703 40.692331 8.664417 12.236334 1.543026 54.478079 0.012480 4.325644 5.791643 0.224302 0.009208 -0.143321 0.000000 0.000000 0.000000 0.000000 0.000000 0.000000 0.000000 
0.174465 16.357561 -1.508280 -158.401515 72.014262 -159.153138 1.365397 0.219331 -1.101853 -0.291073 0.107527 -2.604804 -5.118712 0.083285 2.549140 9.572629 -15.210941 -10.720444 -1.499824 -0.077500 -0.794008 0.000000 0.000000 0.000000 -4.680076 25.488044 1.217787 -80.249156 25.952532 8.878036 -3.613487 -26.663176 -0.025636 -10.817408 8.542124 -0.821963 -0.010917 -0.124533 -0.000000 0.000000 0.000000 0.000000 0.000000 0.000000 0.000000 10.853696 -9.662474 0.179299 42.283915 7.712508 11.427813 1.624343 53.825419 0.012641 3.869071 5.818888 0.201062 0.020346 -0.143942 0.000000 0.000000 0.000000 0.000000 0.000000 0.000000 0.000000 
0.336532 16.350448 -1.579111 -159.589514 71.454562 -160.034112 1.230664 0.093213 -1.199334 -0.327596 -0.017307 -2.634217 -5.186117 -0.042329 2.520628 9.504744 -15.132279 -10.696007 -1.558296 -0.082746 -0.785968 0.000000 0.000000 0.000000 -4.584117 25.165702 1.191968 -79.453945 24.610915 8.998855 -3.603831 -26.852341 -0.023874 -10.196051 8.130343 -0.736301 -0.018127 -0.117135 -0.000000 0.000000 0.000000 0.000000 0.000000 0.000000 0.000000 10.867766 -9.577084 0.112218 43.980659 6.663606 10.464616 1.708576 53.082079 0.012701 3.352070 5.843930 0.174323 0.031953 -0.144574 0.000000 0.000000 0.000000 0.000000 0.000000 0.000000 0.000000 
0.495158 16.348085 -1.653174 -160.704214 70.810768 -160.841104 1.158537 -0.028640 -1.302571 -0.351764 -0.142216 -2.661464 -5.251080 -0.167540 2.500351 9.407714 -15.087542 -10.660275 -1.616751 -0.088139 -0.774931 0.000000 0.000000 0.000000 -4.486212 24.822844 1.158430 -78.626858 23.197600 8.995150 -3.596292 -27.081329 -0.022030 -9.501596 7.718703 -0.650232 -0.026048 -0.109310 -0.000000 0.000000 0.000000 0.000000 0.000000 0.000000 0.000000 10.861052 -9.542734 0.040914 45.729579 5.584292 9.393246 1.796139 52.231994 0.012648 2.777361 5.875223 0.144384 0.043946 -0.145068 0.000000 0.000000 0.000000 0.000000 0.000000 0.000000 0.000000 
0.650752 16.350161 -1.731346 -161.691055 70.086278 -161.525129 1.165090 -0.141811 -1.418471 -0.360933 -0.264179 -2.688969 -5.314948 -0.289309 2.484210 9.283708 -15.048457 -10.607764 -1.676869 -0.093919 -0.759363 0.000000 0.000000 0.000000 -4.386254 24.455642 1.118021 -77.778760 21.743358 8.870676 -3.589211 -27.377636 -0.020127 -8.745729 7.299498 -0.564856 -0.034466 -0.101068 -0.000000 0.000000 0.000000 0.000000 0.000000 0.000000 0.000000 10.835205 -9.528072 -0.031733 47.508663 4.432756 8.183694 1.887416 51.304286 0.012531 2.194972 5.905194 0.113741 0.055656 -0.145198 0.000000 0.000000 0.000000 0.000000 0.000000 0.000000 0.000000 
0.803752 16.356168 -1.814198 -162.521888 69.287137 -162.059011 1.256972 -0.245363 -1.551997 -0.353547 -0.382914 -2.716119 -5.376945 -0.407148 2.477624 9.146920 -15.057229 -10.548159 -1.736328 -0.099753 -0.741866 0.000000 0.000000 0.000000 -4.294032 24.074245 1.066250 -76.911299 20.267648 8.650459 -3.580198 -27.778598 -0.018194 -7.946653 6.865653 -0.481576 -0.043085 -0.092488 -0.000000 0.000000 0.000000 0.000000 0.000000 0.000000 0.000000 10.812599 -9.579552 -0.099954 49.264834 3.292767 6.905771 1.983757 50.281728 0.012366 1.609338 5.938907 0.082693 0.067119 -0.144798 0.000000 0.000000 0.000000 0.000000 0.000000 0.000000 0.000000 
0.954608 16.365518 -1.901968 -163.179124 68.419407 -162.422883 1.439038 -0.337996 -1.712778 -0.328974 -0.497999 -2.745817 -5.438661 -0.520668 2.476726 9.004087 -15.090079 -10.478520 -1.796695 -0.105837 -0.721557 0.000000 0.000000 0.000000 -4.204788 23.674470 1.004856 -76.030463 18.803268 8.362939 -3.567165 -28.318286 -0.016257 -7.124253 6.408227 -0.401791 -0.051693 -0.083613 -0.000000 0.000000 0.000000 0.000000 0.000000 0.000000 0.000000 10.799429 -9.669382 -0.161249 50.979042 2.136594 5.546010 2.085903 49.193704 0.012216 1.066945 5.965733 0.053537 0.077821 -0.143696 0.000000 0.000000 0.000000 0.000000 0.000000 0.000000 0.000000 
1.103684 16.377486 -1.994517 -163.669189 67.487662 -162.618750 1.706616 -0.421438 -1.907240 -0.287923 -0.611277 -2.778965 -5.500358 -0.631629 2.482616 8.867422 -15.161952 -10.404405 -1.856969 -0.112017 -0.699873 0.000000 0.000000 0.000000 -4.117269 23.258422 0.933320 -75.136008 17.374998 8.049888 -3.547838 -29.032849 -0.014344 -6.301111 5.923036 -0.327303 -0.060074 -0.074522 -0.000000 0.000000 0.000000 0.000000 0.000000 0.000000 0.000000 10.809583 -9.812536 -0.212560 52.623106 1.002222 4.145966 2.194885 48.042118 0.012114 0.583223 5.982262 0.027275 0.087697 -0.141798 0.000000 0.000000 0.000000 0.000000 0.000000 0.000000 0.000000 
1.251437 16.391369 -2.091329 -164.014579 66.494442 -162.663244 2.048693 -0.498906 -2.140699 -0.232417 -0.725669 -2.817036 -5.563040 -0.742924 2.493711 8.746685 -15.268427 -10.328165 -1.917285 -0.118285 -0.677381 0.000000 0.000000 0.000000 -4.022447 22.823649 0.853624 -74.226702 16.007777 7.755046 -3.520318 -29.951576 -0.012474 -5.499175 5.409819 -0.259812 -0.068078 -0.065272 -0.000000 0.000000 0.000000 0.000000 0.000000 0.000000 0.000000 10.851704 -10.002463 -0.252625 54.185260 -0.105475 2.720819 2.311009 46.842527 0.012098 0.179402 5.982218 0.005304 0.096576 -0.139076 0.000000 0.000000 0.000000 0.000000 0.000000 0.000000 0.000000 
